Hanif_Shallow_5_0_grf.mot
version=1
nRows=21
nColumns=19
inDegrees=yes
endheader
time	right_ground_force_vx	right_ground_force_vy	right_ground_force_vz	right_ground_force_px	right_ground_force_py	right_ground_force_pz	right_ground_torque_x	right_ground_torque_y	right_ground_torque_z	left_ground_force_vx	left_ground_force_vy	left_ground_force_vz	left_ground_force_px	left_ground_force_py	left_ground_force_pz	left_ground_torque_x	left_ground_torque_y	left_ground_torque_z
4.925000	-9.283060	245.795000	51.060800	0.232683	0.000000	-1.411860	-23.142400	-2.448640	8.052990	0.071064	229.453000	-50.593900	0.221381	0.000000	-0.986622	19.186100	-2.589400	5.714070
4.930000	-9.291190	245.901000	51.163800	0.232114	0.000000	-1.412330	-23.036900	-2.451820	7.909740	-0.266459	227.545000	-50.545800	0.219840	0.000000	-0.986432	18.988900	-2.670370	5.335290
4.935000	-9.488730	248.013000	51.146400	0.230941	0.000000	-1.411460	-23.451300	-2.380440	7.694170	-0.609019	228.022000	-50.573900	0.219778	0.000000	-0.986564	19.064600	-2.795160	5.362930
4.940000	-10.064300	245.829000	51.577800	0.231400	0.000000	-1.412430	-23.007700	-2.410610	7.750730	-1.178450	227.923000	-50.905300	0.219447	0.000000	-0.985699	18.869300	-2.821340	5.305350
4.945000	-9.983310	241.086000	50.991400	0.230629	0.000000	-1.413040	-22.419100	-2.291130	7.426200	-2.220070	226.758000	-50.855000	0.218233	0.000000	-0.986106	18.884100	-2.882910	5.030450
4.950000	-9.576150	241.409000	51.817400	0.230723	0.000000	-1.414500	-22.096100	-2.293580	7.454360	-1.450600	226.010000	-51.364100	0.217999	0.000000	-0.985103	18.581600	-2.908580	4.966060
4.955000	-9.511570	241.236000	51.650300	0.229203	0.000000	-1.414440	-22.094800	-2.183660	7.086630	-0.433437	233.169000	-52.870800	0.217936	0.000000	-0.984137	18.926200	-3.114060	5.111340
4.960000	-8.810720	241.019000	52.526600	0.228939	0.000000	-1.414500	-22.058400	-2.176260	7.007640	1.282100	236.254000	-54.787000	0.218079	0.000000	-0.985670	19.508700	-3.249130	5.229900
4.965000	-7.540930	241.300000	53.008200	0.229105	0.000000	-1.414230	-22.147700	-2.131400	7.045860	2.702720	242.459000	-56.328400	0.217835	0.000000	-0.984870	19.803700	-3.390790	5.294010
4.970000	-7.498850	245.559000	53.668800	0.227857	0.000000	-1.415060	-22.336600	-2.012500	6.876440	2.253250	244.270000	-57.044300	0.218278	0.000000	-0.984825	19.948300	-3.386300	5.456010
4.975000	-6.723110	247.442000	54.469000	0.227452	0.000000	-1.415090	-22.500500	-1.880200	6.842530	2.806780	248.342000	-57.928000	0.218207	0.000000	-0.985679	20.483200	-3.543790	5.540060
4.980000	-5.552250	250.341000	55.028400	0.226552	0.000000	-1.415450	-22.670700	-1.804940	6.682060	2.104560	253.003000	-58.780500	0.217489	0.000000	-0.984519	20.587300	-3.624740	5.465840
4.985000	-5.204590	252.696000	55.392200	0.226887	0.000000	-1.414330	-23.169400	-1.687420	6.855260	2.629050	258.132000	-59.654100	0.217680	0.000000	-0.985066	21.138400	-3.615200	5.593040
4.990000	-4.777740	254.467000	55.285600	0.226058	0.000000	-1.415260	-23.096700	-1.577550	6.695350	2.730140	267.510000	-60.978800	0.217630	0.000000	-0.983587	21.510900	-3.756090	5.767180
4.995000	-5.029850	254.805000	55.323600	0.225535	0.000000	-1.415130	-23.161200	-1.459580	6.595550	2.992040	270.559000	-61.778400	0.217794	0.000000	-0.983865	21.827900	-3.750180	5.866510
5.000000	-4.799430	255.249000	55.438700	0.225246	0.000000	-1.415240	-23.177100	-1.199280	6.582250	2.996630	275.568000	-62.254200	0.218090	0.000000	-0.983342	22.088600	-3.819890	6.048030
5.005000	-4.910290	256.281000	55.567500	0.224851	0.000000	-1.415680	-23.158200	-1.190900	6.506280	3.196390	278.767000	-63.572000	0.218521	0.000000	-0.984003	22.526100	-3.865750	6.254000
5.010000	-5.254730	257.090000	55.740200	0.223481	0.000000	-1.416090	-23.126000	-1.180630	6.167000	3.003510	281.496000	-63.735500	0.217767	0.000000	-0.983357	22.569000	-3.918850	6.090430
5.015000	-5.814200	255.020000	55.721800	0.223434	0.000000	-1.413920	-23.500800	-1.027460	6.153970	2.697830	281.992000	-63.648900	0.217676	0.000000	-0.984504	22.937600	-3.875450	6.063600
5.020000	-6.182200	256.227000	56.022000	0.223363	0.000000	-1.415480	-23.215100	-1.023830	6.171000	2.785960	282.992000	-64.553800	0.217797	0.000000	-0.984546	23.029300	-3.919750	6.140700
5.025000	-5.953700	258.034000	56.918700	0.223214	0.000000	-1.415530	-23.365100	-0.945041	6.191770	2.265790	290.172000	-65.605000	0.217960	0.000000	-0.983767	23.397500	-3.965810	6.333050
